<svg width="46" height="19" viewBox="0 0 46 19" fill="none" xmlns="http://www.w3.org/2000/svg">
<path d="M2.115 15.12C1.805 15.12 1.565 15.035 1.395 14.865C1.235 14.685 1.155 14.44 1.155 14.13V5.4C1.155 5.08 1.24 4.84 1.41 4.68C1.58 4.51 1.82 4.425 2.13 4.425H5.745C6.905 4.425 7.8 4.705 8.43 5.265C9.06 5.815 9.375 6.59 9.375 7.59C9.375 8.24 9.23 8.8 8.94 9.27C8.66 9.74 8.25 10.1 7.71 10.35C7.17 10.6 6.515 10.725 5.745 10.725L5.88 10.5H6.375C6.785 10.5 7.14 10.6 7.44 10.8C7.75 11 8.02 11.315 8.25 11.745L9.375 13.83C9.495 14.04 9.55 14.245 9.54 14.445C9.53 14.645 9.455 14.81 9.315 14.94C9.175 15.06 8.97 15.12 8.7 15.12C8.43 15.12 8.21 15.065 8.04 14.955C7.87 14.835 7.72 14.655 7.59 14.415L6.075 11.625C5.895 11.285 5.68 11.06 5.43 10.95C5.19 10.83 4.88 10.77 4.5 10.77H3.075V14.13C3.075 14.44 2.995 14.685 2.835 14.865C2.675 15.035 2.435 15.12 2.115 15.12ZM3.075 9.345H5.415C6.105 9.345 6.625 9.205 6.975 8.925C7.335 8.635 7.515 8.205 7.515 7.635C7.515 7.075 7.335 6.655 6.975 6.375C6.625 6.085 6.105 5.94 5.415 5.94H3.075V9.345ZM15.8332 15.15C15.1032 15.15 14.4582 15.055 13.8982 14.865C13.3482 14.675 12.8832 14.395 12.5032 14.025C12.1232 13.645 11.8382 13.175 11.6482 12.615C11.4582 12.055 11.3632 11.405 11.3632 10.665V5.28C11.3632 4.95 11.4432 4.705 11.6032 4.545C11.7732 4.385 12.0132 4.305 12.3232 4.305C12.6332 4.305 12.8682 4.385 13.0282 4.545C13.1982 4.705 13.2832 4.95 13.2832 5.28V10.65C13.2832 11.6 13.4982 12.315 13.9282 12.795C14.3682 13.265 15.0032 13.5 15.8332 13.5C16.6632 13.5 17.2932 13.265 17.7232 12.795C18.1532 12.315 18.3682 11.6 18.3682 10.65V5.28C18.3682 4.95 18.4482 4.705 18.6082 4.545C18.7782 4.385 19.0182 4.305 19.3282 4.305C19.6282 4.305 19.8582 4.385 20.0182 4.545C20.1882 4.705 20.2732 4.95 20.2732 5.28V10.665C20.2732 11.645 20.1032 12.47 19.7632 13.14C19.4332 13.81 18.9382 14.315 18.2782 14.655C17.6182 14.985 16.8032 15.15 15.8332 15.15Z" fill="white"/>
<g clip-path="url(#clip0_6_9)">
<path d="M28.5 8.75L33 13.25L37.5 8.75" stroke="#8E8E8E" stroke-width="2" stroke-linecap="round" stroke-linejoin="round"/>
</g>
<defs>
<clipPath id="clip0_6_9">
<rect width="18" height="18" fill="white" transform="translate(28 1)"/>
</clipPath>
</defs>
</svg>
